<svg width="61" height="61" viewBox="0 0 61 61" fill="none" xmlns="http://www.w3.org/2000/svg">
<g clip-path="url(#clip0_186_26452)">
<g clip-path="url(#clip1_186_26452)">
<g clip-path="url(#clip2_186_26452)">
<path d="M9.38332 28.5549V51.7835H51.6592V28.5549C50.9998 28.5549 50.3456 28.5619 49.6933 28.5549C48.4098 28.5373 47.4665 27.6292 47.4735 26.4269C47.4806 25.2227 48.4186 24.3358 49.7162 24.3252C50.9504 24.3164 52.1846 24.3218 53.4205 24.3235C55.1307 24.3235 55.9382 25.1221 55.9382 26.8165C55.9382 34.8615 55.9382 42.9047 55.9382 50.9496V51.8329C56.5976 51.8329 57.227 51.8294 57.8565 51.8329C59.3446 51.8417 60.2226 52.7691 60.1627 54.2642C60.0339 57.4624 57.3664 60.137 54.1575 60.2869C54.0252 60.2939 53.893 60.2975 53.7608 60.2975C38.286 60.2975 22.8094 60.3027 7.33457 60.2939C4.32846 60.2939 1.85306 58.3687 1.11255 55.5213C1.05084 55.2868 1.01029 55.0487 0.969738 54.8107C0.650615 52.8995 1.54274 51.8364 3.46101 51.8347C3.98818 51.8347 4.51535 51.8347 5.13597 51.8347V51.0395C5.13597 42.9734 5.13597 34.9073 5.13597 26.8412C5.13597 25.1169 5.92055 24.327 7.62724 24.3252C8.8614 24.3252 10.0956 24.32 11.3315 24.3252C12.6627 24.3341 13.6165 25.2421 13.6007 26.4692C13.5848 27.6681 12.6415 28.5408 11.3386 28.5549C10.7038 28.5619 10.0709 28.5549 9.38503 28.5549H9.38332Z" fill="#FFA229"/>
<path d="M20.2191 4.7649C20.5858 4.9465 21.1835 5.21096 21.7459 5.5336C22.0756 5.72226 22.3454 5.76986 22.631 5.49834C22.6469 5.48248 22.6645 5.46837 22.6839 5.45955C23.7911 5.01702 24.3818 4.35939 24.269 3.00887C24.1738 1.85405 25.2016 1.05361 26.4023 1.04832C29.1581 1.03598 31.912 1.03598 34.6678 1.04832C35.9072 1.05361 36.884 1.914 36.8223 3.14815C36.7676 4.2395 37.1061 4.84424 38.0935 5.32732C38.7335 5.64115 39.139 5.67112 39.735 5.29911C41.2318 4.36644 42.3232 4.67674 43.1959 6.19829C44.4777 8.43211 45.7577 10.6677 47.0324 12.9051C47.8188 14.2856 47.5544 15.4633 46.1685 16.1844C45.4175 16.5758 45.2076 17.0254 45.1882 17.8594C45.1653 18.8361 45.4051 19.4002 46.3113 19.8569C47.5332 20.4722 47.7906 21.6905 47.1065 22.9C45.7718 25.2554 44.4284 27.6057 43.0743 29.9523C42.3655 31.1812 41.1736 31.5444 39.9888 30.788C39.2113 30.2908 38.6453 30.2644 37.822 30.7704C37.0815 31.2253 36.8011 31.6537 36.8364 32.5105C36.8998 34.0726 36.0077 34.9013 34.4298 34.9031C31.8292 34.9066 29.2286 34.9066 26.6262 34.9031C25.0606 34.9013 24.1632 34.0603 24.2337 32.4965C24.2742 31.629 24.0591 31.0683 23.2111 30.8021C23.0683 30.758 22.929 30.6664 22.8161 30.5641C22.3895 30.1797 21.9769 30.178 21.5361 30.5429C21.3863 30.6681 21.1994 30.7492 21.0248 30.8445C19.8788 31.4597 18.7116 31.1741 18.0592 30.0545C16.6523 27.6391 15.2612 25.2131 13.8912 22.7765C13.2795 21.6888 13.588 20.4422 14.7058 19.8868C15.6209 19.432 15.9224 18.8714 15.8801 17.8505C15.8466 17.0201 15.6385 16.5617 14.8927 16.1756C13.5334 15.4721 13.2495 14.2891 14.0076 12.9562C15.3247 10.6413 16.6576 8.33514 17.9711 6.01846C18.4101 5.24446 19.0466 4.81779 20.2155 4.7649H20.2191ZM40.3926 26.1194C41.0925 24.8958 41.7713 23.7057 42.459 22.5033C42.3055 22.4028 42.2192 22.334 42.1222 22.2847C41.0678 21.7399 40.7381 20.8901 40.8316 19.7141C40.9304 18.4728 40.8757 17.2158 40.814 15.9693C40.7664 15.012 41.0837 14.2979 41.8947 13.7972C42.0781 13.6843 42.2597 13.568 42.4624 13.4428C41.7607 12.221 41.0855 11.0415 40.4032 9.85491C40.2727 9.90254 40.1828 9.91662 40.1122 9.96247C38.9892 10.7012 38.0001 10.5091 36.9792 9.67684C36.2881 9.1144 35.4999 8.59788 34.6695 8.29636C33.2661 7.78683 32.4727 6.97051 32.6014 5.419C32.605 5.38727 32.5538 5.35024 32.5415 5.33261H28.4175C28.6573 6.96523 27.8234 7.77096 26.4323 8.28402C25.6618 8.56966 24.8949 8.9998 24.276 9.5358C23.1617 10.5037 22.065 10.74 20.8062 9.89551C20.778 9.87788 20.7233 9.89899 20.6352 9.9078C19.974 11.0626 19.3005 12.2386 18.6147 13.4393C18.858 13.5944 19.059 13.7231 19.2599 13.8536C19.9916 14.3297 20.2843 15.0014 20.2632 15.8723C20.2314 17.274 20.2314 18.6774 20.2632 20.0791C20.2826 20.95 19.9881 21.6217 19.2564 22.096C19.0554 22.2265 18.8544 22.3552 18.6129 22.5103C19.3093 23.7234 19.9916 24.9117 20.6845 26.1194C20.9701 25.9695 21.18 25.8549 21.3951 25.7491C22.1796 25.363 22.9043 25.4741 23.6412 25.9307C24.7944 26.6465 25.965 27.3359 27.1587 27.9812C27.9503 28.4079 28.4069 28.9985 28.4387 29.9012C28.4475 30.1374 28.4598 30.3737 28.4722 30.6258H32.6261C32.6261 30.3649 32.6226 30.148 32.6261 29.9311C32.6472 28.9985 33.1215 28.3991 33.9378 27.9636C35.1156 27.3342 36.2669 26.6554 37.3988 25.9466C38.1569 25.4705 38.8992 25.3595 39.705 25.7632C39.9183 25.8708 40.1298 25.9819 40.389 26.1176L40.3926 26.1194Z" fill="#FFA229"/>
<path d="M25.0061 43.3677C25.9793 44.3233 26.912 45.1924 27.79 46.1128C28.9608 47.3381 28.3983 49.274 26.7798 49.6566C26.0393 49.8311 25.3693 49.646 24.8298 49.1136C23.4016 47.7049 21.977 46.2926 20.5753 44.8575C19.7238 43.9847 19.7185 42.7594 20.5665 41.8902C21.9665 40.455 23.3858 39.0358 24.821 37.6359C25.6849 36.7931 26.9684 36.8213 27.7918 37.6464C28.6152 38.4681 28.6381 39.7445 27.7953 40.6173C26.9102 41.5341 25.9828 42.4068 25.0025 43.3694L25.0061 43.3677Z" fill="#FFA229"/>
<path d="M36.0422 43.3592C35.1183 42.4494 34.2649 41.619 33.4257 40.7762C32.4631 39.8101 32.4014 38.5407 33.2617 37.6609C34.1397 36.7635 35.4321 36.8164 36.4266 37.8019C37.74 39.1066 39.0518 40.4148 40.3547 41.7283C41.3826 42.765 41.3932 43.9568 40.3741 44.9865C39.0412 46.3353 37.7012 47.6752 36.3507 49.0063C35.4215 49.9231 34.1363 49.9496 33.2811 49.0962C32.4243 48.2411 32.4472 46.9541 33.3587 46.0285C34.2208 45.1505 35.1024 44.2919 36.0422 43.3574V43.3592Z" fill="#FFA229"/>
<path d="M30.51 11.627C34.0063 11.6164 36.8713 14.4585 36.8837 17.9477C36.8943 21.442 34.0521 24.3088 30.5629 24.3211C27.072 24.3335 24.1999 21.4861 24.1875 18.0005C24.1769 14.5079 27.0226 11.6393 30.51 11.6288V11.627ZM32.6504 17.997C32.6628 16.8474 31.7231 15.8813 30.5753 15.8601C29.4275 15.839 28.4489 16.7734 28.4207 17.9176C28.3908 19.0919 29.3569 20.0845 30.5295 20.088C31.6772 20.0915 32.6381 19.1448 32.6504 17.997Z" fill="#FFA229"/>
</g>
</g>
</g>
<defs>
<clipPath id="clip0_186_26452">
<rect width="60" height="60" fill="white" transform="translate(0.660156 0.669922)"/>
</clipPath>
<clipPath id="clip1_186_26452">
<rect width="60" height="60" fill="white" transform="translate(0.660156 0.669922)"/>
</clipPath>
<clipPath id="clip2_186_26452">
<rect width="60" height="59.2593" fill="white" transform="translate(0.660156 1.03906)"/>
</clipPath>
</defs>
</svg>
