<svg width="61" height="61" viewBox="0 0 61 61" fill="none" xmlns="http://www.w3.org/2000/svg">
<g clip-path="url(#clip0_186_26466)">
<g clip-path="url(#clip1_186_26466)">
<g clip-path="url(#clip2_186_26466)">
<path d="M31.8895 41.3555C32.0212 41.5014 32.0887 41.5838 32.163 41.6594C33.9507 43.4774 35.7435 45.2903 37.5195 47.1204C37.7609 47.3693 37.9702 47.68 38.107 47.9994C38.3382 48.5453 38.1019 49.0243 37.5381 49.1823C37.2038 49.2767 36.8442 49.3213 36.4965 49.323C30.7584 49.3316 25.0221 49.3316 19.284 49.3213C18.9279 49.3213 18.5531 49.2543 18.2205 49.1273C17.7157 48.935 17.5369 48.4697 17.7749 47.977C17.937 47.6406 18.1615 47.3161 18.4197 47.0483C20.1535 45.2628 21.9024 43.4928 23.6513 41.7228C23.7425 41.6301 23.8792 41.5855 23.9957 41.5185C23.9619 41.4722 23.9282 41.4258 23.8944 41.3795C23.8167 41.3726 23.7391 41.3624 23.6614 41.3624C16.6337 41.3606 9.60422 41.3571 2.57644 41.3589C1.29851 41.3589 0.479751 40.5434 0.478063 39.2352C0.474687 37.2575 0.478063 35.2798 0.478063 33.3021C0.478063 24.0675 0.478063 14.8347 0.478063 5.60016C0.474687 4.2422 1.26812 3.43703 2.60513 3.43703C9.3493 3.43703 16.0918 3.43703 22.836 3.43703C29.8198 3.43531 36.8054 3.43359 43.791 3.43359C46.9444 3.43359 50.0979 3.43531 53.2514 3.43703C54.607 3.43703 55.4105 4.24906 55.4105 5.61733C55.4105 12.3797 55.4105 19.1404 55.4089 25.9027C55.4089 26.1345 55.4325 26.3028 55.6553 26.459C58.9725 28.8041 60.6556 32.0299 60.4615 36.145C60.2876 39.8189 58.5741 42.6688 55.5895 44.7272C55.3903 44.8645 55.3463 44.9727 55.4122 45.1993C56.2597 48.1109 57.0902 51.0277 57.9461 53.9377C58.3108 55.1755 58.2061 56.2811 57.2253 57.1979C55.7887 58.5387 53.3797 57.8914 52.8074 55.991C52.2047 53.9841 51.6358 51.9669 51.0551 49.9531C50.7512 48.899 50.4457 47.8449 50.1536 46.7873C50.0928 46.5676 50.0118 46.4766 49.7636 46.4714C45.9569 46.389 42.9806 44.7324 40.808 41.5597C40.7438 41.4653 40.6054 41.3657 40.5007 41.364C37.6613 41.3538 34.8202 41.3555 31.8878 41.3555H31.8895ZM39.1755 37.3743C38.7113 33.6849 39.6348 30.4882 42.1856 27.8805C44.7364 25.2727 47.8729 24.3147 51.4569 24.7714V7.49377H4.41146V37.376H39.1755V37.3743ZM57.0581 35.5562C57.0547 31.4685 53.7071 27.9766 49.4412 28.162C45.5855 28.3285 42.54 31.5629 42.4894 35.4858C42.4354 39.5786 45.7053 42.9726 49.7569 42.9813C53.8 42.9899 57.0953 39.6146 57.0581 35.5562Z" fill="#FFA229"/>
<path d="M21.0586 22.0716C21.0586 19.2544 21.0586 16.4371 21.0586 13.6199C21.0586 12.6019 21.7676 11.8362 22.7096 11.8379C23.6685 11.8379 24.4062 12.5813 24.4079 13.589C24.4146 19.2114 24.4164 24.8339 24.4079 30.4564C24.4062 31.7611 23.3933 32.5731 22.2386 32.2349C21.5263 32.0272 21.062 31.3851 21.0603 30.5971C21.0586 27.7558 21.0603 24.9128 21.0603 22.0716H21.0586Z" fill="#FFA229"/>
<path d="M33.35 23.8105C33.35 26.0561 33.3484 28.3033 33.35 30.5489C33.35 31.3094 33.0107 31.864 32.3422 32.1678C31.6973 32.4614 31.0761 32.3447 30.5427 31.8691C30.1105 31.4828 29.9805 30.9678 29.9805 30.3978C29.9839 26.4166 29.9839 22.4372 29.9839 18.4559C29.9839 17.9856 29.9788 17.5168 29.9839 17.0465C29.994 16.0336 30.7148 15.2593 31.645 15.2559C32.6208 15.2524 33.3433 15.9975 33.3466 17.0345C33.3518 19.2937 33.3484 21.5513 33.3484 23.8105H33.35Z" fill="#FFA229"/>
<path d="M28.8706 25.5315C28.8706 27.2362 28.8791 28.941 28.8673 30.6457C28.8622 31.4697 28.3017 32.117 27.4982 32.2801C26.7503 32.4329 25.9906 32.0466 25.68 31.3119C25.5771 31.0698 25.523 30.7882 25.523 30.5238C25.5129 27.1624 25.5146 23.801 25.5197 20.4412C25.5197 19.418 26.2304 18.6729 27.1841 18.6661C28.1515 18.6592 28.8757 19.4163 28.8791 20.4515C28.8825 22.1442 28.8791 23.837 28.8791 25.5297H28.8706V25.5315Z" fill="#FFA229"/>
<path d="M16.5682 25.4889C16.5682 23.8099 16.5632 22.1326 16.57 20.4535C16.575 19.4217 17.2722 18.6801 18.2294 18.6681C19.19 18.6561 19.9209 19.3754 19.9243 20.4089C19.9378 23.8201 19.9378 27.2314 19.9243 30.6426C19.9209 31.5937 19.1359 32.3405 18.2294 32.3165C17.2941 32.2925 16.5851 31.5611 16.5818 30.598C16.5767 28.895 16.5818 27.1902 16.5818 25.4871C16.5784 25.4871 16.575 25.4871 16.57 25.4871L16.5682 25.4889Z" fill="#FFA229"/>
<path d="M12.1031 27.0027C12.1031 25.8405 12.0997 24.6799 12.1031 23.5177C12.1064 22.5099 12.834 21.7322 13.7625 21.7305C14.718 21.7305 15.4574 22.5064 15.4591 23.5279C15.4624 25.8628 15.4624 28.1993 15.4591 30.5341C15.4574 31.5556 14.7113 32.3281 13.7524 32.3161C12.8053 32.3041 12.1064 31.547 12.1031 30.5238C12.0997 29.3495 12.1031 28.1753 12.1031 27.001V27.0027Z" fill="#FFA229"/>
<path d="M37.8718 28.9336C37.8718 29.5379 37.8988 30.1439 37.8651 30.7482C37.8161 31.6237 37.1222 32.283 36.2664 32.3174C35.4257 32.3517 34.6036 31.7302 34.5613 30.8718C34.4955 29.5551 34.5039 28.2297 34.5664 26.9129C34.6036 26.1026 35.3598 25.512 36.1803 25.4983C37.0074 25.4845 37.7553 26.0665 37.8414 26.9026C37.9106 27.5739 37.8549 28.2572 37.8549 28.9353C37.86 28.9353 37.865 28.9353 37.8718 28.9353V28.9336Z" fill="#FFA229"/>
<path d="M55.376 35.2349C55.3945 36.5432 55.1278 37.5182 54.6213 38.4264C54.3563 38.9037 53.9934 39.0307 53.6034 38.8024C53.2489 38.5947 53.1628 38.1792 53.4244 37.7363C54.3462 36.1671 54.1521 34.1362 53.0007 32.8023C52.6547 32.4023 52.2039 32.0864 51.7684 31.7808C51.3869 31.5129 51.2282 31.1525 51.424 30.7885C51.6198 30.4246 52.0216 30.3147 52.4318 30.5499C54.3225 31.6348 55.2764 33.3036 55.376 35.2349Z" fill="#FFA229"/>
</g>
</g>
</g>
<defs>
<clipPath id="clip0_186_26466">
<rect width="60" height="60" fill="white" transform="translate(0.476562 0.669922)"/>
</clipPath>
<clipPath id="clip1_186_26466">
<rect width="60" height="60" fill="white" transform="translate(0.476562 0.669922)"/>
</clipPath>
<clipPath id="clip2_186_26466">
<rect width="60" height="55.2632" fill="white" transform="translate(0.476562 3.03906)"/>
</clipPath>
</defs>
</svg>
