<svg width="80" height="16" viewBox="0 0 80 16" fill="none" xmlns="http://www.w3.org/2000/svg">
<g clip-path="url(#clip0_186_39373)">
<path d="M0.914062 15.3536H15.3963V0.890625H0.914062V15.3536Z" fill="#F2C94C"/>
<path d="M13.2586 7.0426L5.04445 13.0018L6.24305 9.31878L3.10547 7.0426H6.98367L8.18202 3.35938L9.38038 7.0426H13.2586ZM8.18232 10.7258L10.4256 10.2546L11.3194 13.0018L8.18232 10.7258Z" fill="white"/>
<path d="M16.918 15.3536H31.4002V0.890625H16.918V15.3536Z" fill="#F2C94C"/>
<path d="M16.918 15.3536H24.1591V0.890625H16.918V15.3536Z" fill="#F2C94C"/>
<path d="M24.3333 10.6697L26.2569 10.2545L27.1466 13.0641L24.1299 10.8156L20.9956 13.0641L22.2121 9.36776L19.0273 7.08332H22.9638L24.1798 3.38672L25.3964 7.08332H29.3326L24.3333 10.6697Z" fill="white"/>
<path d="M32.9297 15.3536H47.4119V0.890625H32.9297V15.3536Z" fill="#F2C94C"/>
<path d="M32.9297 15.3536H40.1708V0.890625H32.9297V15.3536Z" fill="#F2C94C"/>
<path d="M45.2742 7.0426L37.0601 13.0018L38.2587 9.31878L35.1211 7.0426H38.9993L40.1977 3.35938L41.396 7.0426L45.2742 7.0426ZM40.198 10.7258L42.4412 10.2546L43.335 13.0018L40.198 10.7258Z" fill="white"/>
<path d="M48.9453 15.3536H63.4275V0.890625H48.9453V15.3536Z" fill="#F2C94C"/>
<path d="M48.9453 15.3536H56.1864V0.890625H48.9453V15.3536Z" fill="#F2C94C"/>
<path d="M61.2898 7.0426L53.0759 13.0018L54.2743 9.31878L51.1367 7.0426H55.0149L56.2133 3.35938L57.4116 7.0426L61.2898 7.0426ZM56.2136 10.7258L58.4569 10.2546L59.3507 13.0018L56.2136 10.7258Z" fill="white"/>
<path d="M64.9492 15.3536H79.4314V0.890625H64.9492V15.3536Z" fill="#F2C94C"/>
<path d="M64.9492 15.3536H72.1903V0.890625H64.9492V15.3536Z" fill="#F2C94C"/>
<path d="M77.2937 7.0426L69.0799 13.0018L70.2782 9.31878L67.1406 7.0426H71.0188L72.2172 3.35938L73.4155 7.0426H77.2937ZM72.2175 10.7258L74.4608 10.2546L75.3546 13.0018L72.2175 10.7258Z" fill="white"/>
</g>
<defs>
<clipPath id="clip0_186_39373">
<rect width="78.41" height="14.36" fill="white" transform="translate(0.898438 0.890625)"/>
</clipPath>
</defs>
</svg>
